<?xml version="1.0" encoding="utf-8"?>
<!-- Generator: Adobe Illustrator 16.0.0, SVG Export Plug-In . SVG Version: 6.00 Build 0)  -->
<!DOCTYPE svg PUBLIC "-//W3C//DTD SVG 1.1//EN" "http://www.w3.org/Graphics/SVG/1.1/DTD/svg11.dtd">
<svg version="1.1" xmlns="http://www.w3.org/2000/svg" xmlns:xlink="http://www.w3.org/1999/xlink" x="0px" y="0px" width="449.1px"
	 height="360.4px" viewBox="0 0 449.1 360.4" enable-background="new 0 0 449.1 360.4" xml:space="preserve">
<g id="Layer_1">
	<g>
		<path d="M24.6,306.7c0.9,0,1.6,0.5,2.2,1.4c0.6,0.9,0.9,2.1,0.9,3.6c0,1.5-0.3,2.7-0.9,3.6c-0.6,0.9-1.3,1.4-2.3,1.4
			c-0.9,0-1.7-0.5-2.3-1.4c-0.6-0.9-0.9-2.1-0.9-3.6c0-1.5,0.3-2.7,0.9-3.6C22.9,307.2,23.7,306.7,24.6,306.7z M24.7,308L24.7,308
			c-0.6,0-1,0.3-1.3,1s-0.5,1.6-0.5,2.7c0,1.2,0.2,2.1,0.5,2.7c0.3,0.7,0.7,1,1.3,1s1-0.3,1.3-1c0.3-0.7,0.5-1.5,0.5-2.7
			c0-1.1-0.1-2-0.4-2.7C25.6,308.4,25.2,308,24.7,308z"/>
	</g>
	<g>
		<path d="M43.8,328.3c0.9,0,1.6,0.5,2.2,1.4c0.6,0.9,0.9,2.1,0.9,3.6c0,1.5-0.3,2.7-0.9,3.6c-0.6,0.9-1.3,1.4-2.3,1.4
			c-0.9,0-1.7-0.5-2.3-1.4c-0.6-0.9-0.9-2.1-0.9-3.6c0-1.5,0.3-2.7,0.9-3.6C42.1,328.8,42.9,328.3,43.8,328.3z M43.8,329.7
			L43.8,329.7c-0.6,0-1,0.3-1.3,1c-0.3,0.7-0.5,1.6-0.5,2.7c0,1.2,0.2,2.1,0.5,2.7c0.3,0.7,0.7,1,1.3,1s1-0.3,1.3-1s0.5-1.5,0.5-2.7
			c0-1.1-0.1-2-0.5-2.7C44.7,330,44.3,329.7,43.8,329.7z"/>
	</g>
	<g>
		<path d="M114.5,35h1.4v9.8h-1.4V35z"/>
		<path d="M122.4,34.8c0.9,0,1.6,0.5,2.2,1.4s0.9,2.1,0.9,3.6c0,1.5-0.3,2.7-0.9,3.6c-0.6,0.9-1.3,1.4-2.3,1.4
			c-0.9,0-1.7-0.5-2.3-1.4c-0.6-0.9-0.9-2.1-0.9-3.6c0-1.5,0.3-2.7,0.9-3.6C120.7,35.3,121.4,34.8,122.4,34.8z M122.4,36.2
			L122.4,36.2c-0.6,0-1,0.3-1.3,1c-0.3,0.7-0.5,1.6-0.5,2.7c0,1.2,0.2,2.1,0.5,2.7c0.3,0.7,0.7,1,1.3,1s1-0.3,1.3-1
			c0.3-0.7,0.5-1.5,0.5-2.7c0-1.1-0.1-2-0.5-2.7C123.3,36.5,122.9,36.2,122.4,36.2z"/>
		<path d="M125.8,37.6h4.3v0.5h-4.3V37.6z"/>
		<path d="M131.8,39.2h2.2V40h-3.6v-0.1l0.3-0.4c0.5-0.7,1-1.2,1.3-1.7c0.3-0.5,0.5-0.8,0.6-1c0.1-0.2,0.1-0.5,0.1-0.7
			c0-0.3-0.1-0.6-0.3-0.8c-0.2-0.2-0.4-0.3-0.7-0.3c-0.2,0-0.5,0.1-0.7,0.2c-0.2,0.1-0.4,0.3-0.6,0.6v-1c0.4-0.4,0.9-0.5,1.4-0.5
			c0.5,0,0.9,0.2,1.2,0.5c0.3,0.3,0.5,0.8,0.5,1.3c0,0.2,0,0.5-0.1,0.7c-0.1,0.3-0.2,0.6-0.4,0.9c-0.2,0.3-0.5,0.8-1,1.4L131.8,39.2
			z"/>
	</g>
	<g>
		<path d="M159.8,35h1.4v9.8h-1.4V35z"/>
		<path d="M167.6,34.8c0.9,0,1.6,0.5,2.2,1.4s0.9,2.1,0.9,3.6c0,1.5-0.3,2.7-0.9,3.6c-0.6,0.9-1.3,1.4-2.3,1.4
			c-0.9,0-1.7-0.5-2.3-1.4c-0.6-0.9-0.9-2.1-0.9-3.6c0-1.5,0.3-2.7,0.9-3.6C165.9,35.3,166.7,34.8,167.6,34.8z M167.7,36.2
			L167.7,36.2c-0.6,0-1,0.3-1.3,1c-0.3,0.7-0.5,1.6-0.5,2.7c0,1.2,0.2,2.1,0.5,2.7c0.3,0.7,0.7,1,1.3,1s1-0.3,1.3-1
			c0.3-0.7,0.5-1.5,0.5-2.7c0-1.1-0.2-2-0.5-2.7C168.6,36.5,168.2,36.2,167.7,36.2z"/>
		<path d="M171.1,37.6h4.3v0.5h-4.3V37.6z"/>
		<path d="M177,34.3h0.8V40H177V34.3z"/>
	</g>
	<g>
		<path d="M212.8,35.2h1.4v9.8h-1.4V35.2z"/>
	</g>
	<g>
		<path d="M254.5,35h1.4v9.8h-1.4V35z"/>
		<path d="M262.4,34.8c0.9,0,1.6,0.5,2.2,1.4s0.9,2.1,0.9,3.6c0,1.5-0.3,2.7-0.9,3.6c-0.6,0.9-1.3,1.4-2.3,1.4
			c-0.9,0-1.7-0.5-2.3-1.4c-0.6-0.9-0.9-2.1-0.9-3.6c0-1.5,0.3-2.7,0.9-3.6C260.7,35.3,261.4,34.8,262.4,34.8z M262.4,36.2
			L262.4,36.2c-0.6,0-1,0.3-1.3,1c-0.3,0.7-0.5,1.6-0.5,2.7c0,1.2,0.2,2.1,0.5,2.7c0.3,0.7,0.7,1,1.3,1s1-0.3,1.3-1
			c0.3-0.7,0.5-1.5,0.5-2.7c0-1.1-0.1-2-0.5-2.7C263.3,36.5,262.9,36.2,262.4,36.2z"/>
	</g>
	<g>
		<path d="M297.7,35.2h1.4v9.8h-1.4V35.2z"/>
		<path d="M305.6,35.1c0.9,0,1.6,0.5,2.2,1.4s0.9,2.1,0.9,3.6c0,1.5-0.3,2.7-0.9,3.6c-0.6,0.9-1.3,1.4-2.3,1.4
			c-0.9,0-1.7-0.5-2.3-1.4c-0.6-0.9-0.9-2.1-0.9-3.6c0-1.5,0.3-2.7,0.9-3.6C303.9,35.5,304.6,35.1,305.6,35.1z M305.6,36.4
			L305.6,36.4c-0.6,0-1,0.3-1.3,1c-0.3,0.7-0.5,1.6-0.5,2.7c0,1.2,0.2,2.1,0.5,2.7c0.3,0.7,0.7,1,1.3,1s1-0.3,1.3-1
			c0.3-0.7,0.5-1.5,0.5-2.7c0-1.1-0.2-2-0.5-2.7C306.5,36.7,306.1,36.4,305.6,36.4z"/>
		<path d="M310.8,39.4h2.2v0.8h-3.6v-0.1l0.3-0.4c0.5-0.7,1-1.2,1.3-1.7c0.3-0.5,0.5-0.8,0.6-1c0.1-0.2,0.1-0.5,0.1-0.7
			c0-0.3-0.1-0.6-0.3-0.8c-0.2-0.2-0.4-0.3-0.7-0.3c-0.2,0-0.5,0.1-0.7,0.2c-0.2,0.1-0.4,0.3-0.6,0.6v-1c0.4-0.4,0.9-0.5,1.4-0.5
			c0.5,0,0.9,0.2,1.2,0.5s0.5,0.8,0.5,1.3c0,0.2,0,0.5-0.1,0.7c-0.1,0.3-0.2,0.6-0.4,0.9c-0.2,0.3-0.6,0.8-1,1.4L310.8,39.4z"/>
	</g>
	<g>
		<path d="M343,35h1.4v9.8H343V35z"/>
		<path d="M350.9,34.8c0.9,0,1.6,0.5,2.2,1.4s0.9,2.1,0.9,3.6c0,1.5-0.3,2.7-0.9,3.6c-0.6,0.9-1.3,1.4-2.3,1.4
			c-0.9,0-1.7-0.5-2.3-1.4c-0.6-0.9-0.9-2.1-0.9-3.6c0-1.5,0.3-2.7,0.9-3.6C349.1,35.3,349.9,34.8,350.9,34.8z M350.9,36.2
			L350.9,36.2c-0.6,0-1,0.3-1.3,1c-0.3,0.7-0.5,1.6-0.5,2.7c0,1.2,0.2,2.1,0.5,2.7c0.3,0.7,0.7,1,1.3,1s1-0.3,1.3-1
			c0.3-0.7,0.5-1.5,0.5-2.7c0-1.1-0.2-2-0.5-2.7S351.4,36.2,350.9,36.2z"/>
		<path d="M355.9,36.6L355.9,36.6c0.4,0,0.7-0.1,0.9-0.2c0.2-0.1,0.3-0.4,0.3-0.6c0-0.3-0.1-0.5-0.3-0.6c-0.2-0.2-0.4-0.2-0.7-0.2
			c-0.3,0-0.6,0.1-1,0.3v-0.8c0.3-0.2,0.7-0.2,1.1-0.2c0.5,0,0.9,0.1,1.2,0.4c0.3,0.3,0.5,0.6,0.5,1.1c0,0.3-0.1,0.5-0.2,0.7
			c-0.1,0.2-0.3,0.4-0.6,0.5c0.2,0.1,0.4,0.2,0.5,0.3c0.1,0.1,0.2,0.3,0.2,0.5c0.1,0.2,0.1,0.4,0.1,0.6c0,0.5-0.2,0.9-0.5,1.2
			c-0.3,0.3-0.8,0.5-1.3,0.5c-0.4,0-0.8-0.1-1.2-0.3v-0.9c0.4,0.3,0.8,0.4,1.2,0.4c0.3,0,0.5-0.1,0.7-0.2c0.2-0.2,0.3-0.4,0.3-0.6
			c0-0.2-0.1-0.4-0.2-0.6c-0.1-0.1-0.2-0.2-0.3-0.2s-0.3-0.1-0.6-0.1l-0.1,0L355.9,36.6L355.9,36.6z"/>
	</g>
	<g>
		
			<line fill="none" stroke="#000000" stroke-width="0.9307" stroke-linecap="round" stroke-linejoin="round" x1="122.9" y1="51.5" x2="122.9" y2="59"/>
		
			<line fill="none" stroke="#000000" stroke-width="0.9307" stroke-linecap="round" stroke-linejoin="round" x1="168.4" y1="51.5" x2="168.4" y2="59"/>
		
			<line fill="none" stroke="#000000" stroke-width="0.9307" stroke-linecap="round" stroke-linejoin="round" x1="213.8" y1="51.5" x2="213.8" y2="59"/>
		
			<line fill="none" stroke="#000000" stroke-width="0.9307" stroke-linecap="round" stroke-linejoin="round" x1="259.2" y1="51.5" x2="259.2" y2="59"/>
		
			<line fill="none" stroke="#000000" stroke-width="0.9307" stroke-linecap="round" stroke-linejoin="round" x1="304.6" y1="51.5" x2="304.6" y2="59"/>
		
			<line fill="none" stroke="#000000" stroke-width="0.9307" stroke-linecap="round" stroke-linejoin="round" x1="350" y1="51.5" x2="350" y2="59"/>
	</g>
	<line fill="none" stroke="#000000" stroke-linecap="round" stroke-linejoin="round" x1="235.1" y1="84.3" x2="235.1" y2="119.5"/>
	<line fill="none" stroke="#000000" stroke-linecap="round" stroke-linejoin="round" x1="235.1" y1="131.5" x2="235.1" y2="166.7"/>
	<line fill="none" stroke="#000000" stroke-linecap="round" stroke-linejoin="round" x1="304" y1="83.1" x2="304" y2="118.3"/>
	<g id="Layer_2">
		<g>
			<g>
				<line fill="none" stroke="#000000" stroke-linecap="round" stroke-linejoin="round" x1="34" y1="313.4" x2="445.2" y2="313.4"/>
				<g>
					<polygon points="438.1,317.2 437.7,316.1 445.1,313.4 437.7,310.7 438.1,309.6 448.6,313.4 					"/>
				</g>
			</g>
		</g>
		<g>
			<g>
				<line fill="none" stroke="#000000" stroke-linecap="round" stroke-linejoin="round" x1="44.5" y1="321.8" x2="44.5" y2="70.3"/>
				<g>
					<polygon points="48.3,77.4 47.2,77.8 44.5,70.4 41.8,77.8 40.7,77.4 44.5,66.9 					"/>
				</g>
			</g>
		</g>
		<path fill="none" stroke="#000000" stroke-width="1.5" stroke-linecap="round" stroke-linejoin="round" d="M44.7,313.4
			c40-27.5,81.1-57.2,120-86.7c27.9-21.2,53.5-43.4,82.2-59.4c46-25.5,96-37.7,142.6-41.9l-1-0.6"/>
		<polyline fill="none" stroke="#000000" stroke-linecap="round" stroke-linejoin="round" points="34,50.8 70.5,50.8 70.5,42.2 
			70.5,42.2 87.7,59.4 87.7,59.4 87.7,50.8 448.6,50.8 		"/>
	</g>
	<g id="Layer_3">
		<g>
			<g>
				
					<line fill="none" stroke="#000000" stroke-linecap="round" stroke-linejoin="round" x1="48.2" y1="102.2" x2="114.4" y2="102.2"/>
				<g>
					<polygon points="55.3,106 55.7,104.9 48.3,102.2 55.7,99.5 55.3,98.4 44.8,102.2 					"/>
				</g>
			</g>
		</g>
		<g>
			<g>
				
					<line fill="none" stroke="#000000" stroke-linecap="round" stroke-linejoin="round" x1="231.7" y1="102.2" x2="165.5" y2="102.2"/>
				<g>
					<polygon points="224.6,98.4 224.2,99.5 231.6,102.2 224.2,104.9 224.6,106 235.1,102.2 					"/>
				</g>
			</g>
		</g>
		<g>
			<g>
				
					<line fill="none" stroke="#000000" stroke-linecap="round" stroke-linejoin="round" x1="48.1" y1="149.4" x2="114.4" y2="149.4"/>
				<g>
					<polygon points="55.2,153.2 55.6,152.1 48.3,149.4 55.6,146.7 55.2,145.6 44.8,149.4 					"/>
				</g>
			</g>
		</g>
		<g>
			<g>
				
					<line fill="none" stroke="#000000" stroke-linecap="round" stroke-linejoin="round" x1="231.7" y1="149.4" x2="165.5" y2="149.4"/>
				<g>
					<polygon points="224.6,145.6 224.2,146.7 231.6,149.4 224.2,152.1 224.6,153.2 235.1,149.4 					"/>
				</g>
			</g>
		</g>
		<g>
			<g>
				
					<line fill="none" stroke="#000000" stroke-linecap="round" stroke-linejoin="round" x1="307.4" y1="102.2" x2="342.3" y2="102.2"/>
				<g>
					<polygon points="314.5,106 314.9,104.9 307.5,102.2 314.9,99.5 314.5,98.4 304,102.2 					"/>
				</g>
			</g>
		</g>
		<line fill="none" stroke="#000000" stroke-linecap="round" stroke-miterlimit="10" x1="448.6" y1="102.2" x2="407.7" y2="102.2"/>
		<g>
			<g>
				
					<line fill="none" stroke="#000000" stroke-linecap="round" stroke-miterlimit="10" x1="237.4" y1="102.2" x2="253.9" y2="102.2"/>
				<g>
					<polygon points="242.1,104.7 242.4,104 237.4,102.2 242.4,100.4 242.1,99.6 235.1,102.2 					"/>
				</g>
			</g>
		</g>
		<g>
			<g>
				
					<line fill="none" stroke="#000000" stroke-linecap="round" stroke-miterlimit="10" x1="301.8" y1="102.2" x2="285.2" y2="102.2"/>
				<g>
					<polygon points="297,99.6 296.8,100.4 301.7,102.2 296.8,104 297,104.7 304,102.2 					"/>
				</g>
			</g>
		</g>
	</g>
	<g>
		<rect x="147.7" y="1" fill="none" width="189.3" height="41.3"/>
		<path fill="#231F20" d="M180.8,3.7h1.3v9.5h-1.2l-6.4-7.4v7.4h-1.3V3.7h1.1l6.4,7.4V3.7z"/>
		<path fill="#231F20" d="M187,7c1,0,1.8,0.3,2.4,0.9s1,1.4,1,2.3c0,0.9-0.3,1.7-1,2.3s-1.5,0.9-2.4,0.9c-0.9,0-1.7-0.3-2.4-0.9
			s-1-1.4-1-2.3c0-0.9,0.3-1.7,1-2.3S186,7,187,7z M186.9,8.1c-0.6,0-1.1,0.2-1.5,0.6s-0.6,0.9-0.6,1.5c0,0.6,0.2,1.1,0.6,1.5
			s0.9,0.6,1.5,0.6c0.6,0,1.1-0.2,1.5-0.6s0.6-0.9,0.6-1.5c0-0.6-0.2-1.1-0.6-1.5S187.5,8.1,186.9,8.1z"/>
		<path fill="#231F20" d="M196.8,8.7v4.6h-1.3V9.8c0-0.7-0.1-1.2-0.3-1.5s-0.5-0.4-1-0.4c-0.3,0-0.5,0.1-0.7,0.2s-0.5,0.3-0.7,0.6
			v4.6h-1.2V7h1.2v0.8c0.6-0.6,1.3-1,1.9-1c0.8,0,1.4,0.4,1.9,1.1c0.7-0.8,1.4-1.1,2.1-1.1c0.6,0,1.1,0.2,1.5,0.7s0.6,1.1,0.6,2v3.7
			h-1.2V9.6c0-0.5-0.1-0.9-0.3-1.2s-0.5-0.4-0.9-0.4C197.8,7.9,197.3,8.2,196.8,8.7z"/>
		<path fill="#231F20" d="M202.4,3.7h1.2v3.7c0.5-0.4,1.1-0.6,1.7-0.6c0.8,0,1.4,0.3,2,0.9s0.8,1.4,0.8,2.3c0,1-0.3,1.8-0.9,2.4
			s-1.4,0.9-2.4,0.9c-0.4,0-0.8,0-1.3-0.1s-0.8-0.2-1.1-0.3V3.7z M203.7,8.6V12c0.4,0.1,0.9,0.2,1.3,0.2c0.6,0,1-0.2,1.4-0.6
			s0.5-0.9,0.5-1.5c0-0.6-0.2-1.1-0.5-1.5S205.6,8,205.1,8C204.6,8,204.1,8.2,203.7,8.6z"/>
		<path fill="#231F20" d="M210.8,7v1.4l0.1-0.1c0.6-1,1.2-1.5,1.8-1.5c0.5,0,1,0.2,1.5,0.7l-0.7,1.1c-0.4-0.4-0.8-0.6-1.2-0.6
			c-0.4,0-0.7,0.2-1,0.6s-0.4,0.8-0.4,1.4v3.3h-1.3V7H210.8z"/>
		<path fill="#231F20" d="M220.1,10.2h-4.4c0,0.6,0.2,1.1,0.6,1.4s0.9,0.5,1.4,0.5c0.8,0,1.6-0.3,2.3-0.8v1.2
			c-0.4,0.3-0.8,0.4-1.1,0.5s-0.8,0.2-1.3,0.2c-0.7,0-1.3-0.1-1.7-0.4s-0.8-0.7-1-1.2s-0.4-1-0.4-1.7c0-1,0.3-1.7,0.8-2.3
			s1.2-0.9,2.1-0.9c0.8,0,1.5,0.3,2,0.9s0.7,1.4,0.7,2.3V10.2z M215.7,9.5h3.2c0-0.5-0.2-0.9-0.4-1.1s-0.6-0.4-1.1-0.4
			s-0.8,0.1-1.1,0.4S215.8,9,215.7,9.5z"/>
		<path fill="#231F20" d="M229.5,3.7h1.3v9.5h-2.7c-0.9,0-1.7-0.3-2.2-0.9s-0.8-1.4-0.8-2.4c0-0.9,0.3-1.7,0.9-2.3s1.3-0.9,2.2-0.9
			c0.4,0,0.9,0.1,1.4,0.3V3.7z M229.5,12.2v-4c-0.4-0.2-0.8-0.3-1.2-0.3c-0.6,0-1.1,0.2-1.5,0.6s-0.5,1-0.5,1.6
			c0,0.6,0.2,1.1,0.5,1.5c0.2,0.2,0.4,0.4,0.6,0.4c0.2,0.1,0.6,0.1,1.2,0.1H229.5z"/>
		<path fill="#231F20" d="M237.8,10.2h-4.4c0,0.6,0.2,1.1,0.6,1.4s0.9,0.5,1.4,0.5c0.8,0,1.6-0.3,2.3-0.8v1.2
			c-0.4,0.3-0.8,0.4-1.1,0.5s-0.8,0.2-1.3,0.2c-0.7,0-1.3-0.1-1.7-0.4c-0.4-0.3-0.8-0.7-1-1.2s-0.4-1-0.4-1.7c0-1,0.3-1.7,0.8-2.3
			c0.5-0.6,1.2-0.9,2.1-0.9c0.8,0,1.5,0.3,2,0.9c0.5,0.6,0.7,1.4,0.7,2.3V10.2z M233.4,9.5h3.2c0-0.5-0.2-0.9-0.4-1.1
			c-0.3-0.3-0.6-0.4-1.1-0.4c-0.4,0-0.8,0.1-1.1,0.4S233.5,9,233.4,9.5z"/>
		<path fill="#231F20" d="M243.3,13.3V3.7h2.4c1,0,1.7,0.2,2.3,0.7s0.9,1.1,0.9,1.9c0,0.6-0.1,1-0.4,1.4c-0.3,0.4-0.7,0.7-1.2,0.9
			c0.3,0.2,0.6,0.5,0.9,0.8c0.3,0.3,0.7,1,1.2,1.8c0.3,0.5,0.6,1,0.8,1.2l0.5,0.7H249l-0.4-0.6c0,0,0-0.1-0.1-0.1l-0.3-0.4l-0.4-0.7
			l-0.5-0.7c-0.3-0.4-0.5-0.7-0.8-0.9c-0.2-0.2-0.4-0.4-0.6-0.5c-0.2-0.1-0.5-0.2-1-0.2h-0.4v4.2H243.3z M245,4.9h-0.4v3h0.5
			c0.7,0,1.2-0.1,1.4-0.2s0.5-0.3,0.6-0.5s0.2-0.5,0.2-0.8c0-0.3-0.1-0.6-0.2-0.8c-0.2-0.2-0.4-0.4-0.7-0.5S245.7,4.9,245,4.9z"/>
		<path fill="#231F20" d="M256.9,10.2h-4.4c0,0.6,0.2,1.1,0.6,1.4s0.9,0.5,1.4,0.5c0.8,0,1.6-0.3,2.3-0.8v1.2
			c-0.4,0.3-0.8,0.4-1.1,0.5s-0.8,0.2-1.3,0.2c-0.7,0-1.3-0.1-1.7-0.4c-0.4-0.3-0.8-0.7-1-1.2s-0.4-1-0.4-1.7c0-1,0.3-1.7,0.8-2.3
			c0.5-0.6,1.2-0.9,2.1-0.9c0.8,0,1.5,0.3,2,0.9c0.5,0.6,0.7,1.4,0.7,2.3V10.2z M252.5,9.5h3.2c0-0.5-0.2-0.9-0.4-1.1
			c-0.3-0.3-0.6-0.4-1.1-0.4c-0.4,0-0.8,0.1-1.1,0.4S252.6,9,252.5,9.5z"/>
		<path fill="#231F20" d="M261.9,7h1.4l-4.5,9.5h-1.4l2.1-4.6L257.1,7h1.4l1.7,3.6L261.9,7z"/>
		<path fill="#231F20" d="M265.4,7v0.8c0.6-0.6,1.2-0.9,1.9-0.9c0.4,0,0.8,0.1,1.1,0.3s0.6,0.5,0.8,0.8c0.2,0.4,0.3,0.9,0.3,1.7v3.6
			h-1.2V9.7c0-0.6-0.1-1.1-0.3-1.4s-0.5-0.4-1-0.4c-0.6,0-1.1,0.3-1.5,0.9v4.5h-1.3V7H265.4z"/>
		<path fill="#231F20" d="M274.1,7c1,0,1.8,0.3,2.4,0.9s1,1.4,1,2.3c0,0.9-0.3,1.7-1,2.3s-1.5,0.9-2.4,0.9c-0.9,0-1.7-0.3-2.4-0.9
			s-1-1.4-1-2.3c0-0.9,0.3-1.7,1-2.3C272.4,7.3,273.2,7,274.1,7z M274.1,8.1c-0.6,0-1.1,0.2-1.5,0.6s-0.6,0.9-0.6,1.5
			c0,0.6,0.2,1.1,0.6,1.5s0.9,0.6,1.5,0.6c0.6,0,1.1-0.2,1.5-0.6c0.4-0.4,0.6-0.9,0.6-1.5c0-0.6-0.2-1.1-0.6-1.5
			S274.7,8.1,274.1,8.1z"/>
		<path fill="#231F20" d="M278.9,3.7h1.2v9.5h-1.2V3.7z"/>
		<path fill="#231F20" d="M286.1,3.7h1.3v9.5h-2.7c-0.9,0-1.7-0.3-2.2-0.9c-0.6-0.6-0.8-1.4-0.8-2.4c0-0.9,0.3-1.7,0.9-2.3
			c0.6-0.6,1.3-0.9,2.2-0.9c0.4,0,0.9,0.1,1.4,0.3V3.7z M286.1,12.2v-4c-0.4-0.2-0.8-0.3-1.2-0.3c-0.6,0-1.1,0.2-1.5,0.6
			c-0.4,0.4-0.6,1-0.6,1.6c0,0.6,0.2,1.1,0.5,1.5c0.2,0.2,0.4,0.4,0.6,0.4s0.6,0.1,1.2,0.1H286.1z"/>
		<path fill="#231F20" d="M288.8,12.8v-1.3c0.4,0.2,0.7,0.4,1.1,0.6c0.4,0.2,0.7,0.2,0.9,0.2c0.3,0,0.5-0.1,0.7-0.2s0.3-0.3,0.3-0.5
			c0-0.2-0.1-0.3-0.2-0.5c-0.1-0.1-0.4-0.3-0.8-0.5c-0.8-0.4-1.3-0.8-1.6-1.1c-0.2-0.3-0.4-0.7-0.4-1c0-0.5,0.2-0.9,0.6-1.2
			c0.4-0.3,0.9-0.5,1.5-0.5c0.6,0,1.2,0.2,1.9,0.5v1.2c-0.7-0.4-1.3-0.7-1.8-0.7c-0.2,0-0.4,0.1-0.6,0.2c-0.1,0.1-0.2,0.2-0.2,0.4
			c0,0.1,0.1,0.3,0.2,0.4c0.1,0.1,0.4,0.3,0.7,0.5l0.4,0.3c1,0.6,1.6,1.2,1.6,2c0,0.5-0.2,0.9-0.6,1.3c-0.4,0.3-0.9,0.5-1.6,0.5
			c-0.4,0-0.7,0-1-0.1S289.2,13,288.8,12.8z"/>
		<path fill="#231F20" d="M294.3,14.9v-0.3c0.2-0.2,0.3-0.4,0.4-0.6s0.1-0.5,0.1-0.8c-0.5-0.1-0.7-0.4-0.7-0.9
			c0-0.2,0.1-0.5,0.2-0.6c0.2-0.2,0.4-0.3,0.6-0.3c0.3,0,0.5,0.1,0.7,0.4s0.3,0.6,0.3,0.9c0,0.5-0.1,1-0.4,1.3
			S294.8,14.8,294.3,14.9z"/>
		<path fill="#231F20" d="M300.2,13.3V3.7h2.4c1,0,1.7,0.2,2.3,0.7c0.6,0.5,0.9,1.1,0.9,1.9c0,0.6-0.1,1-0.4,1.4s-0.7,0.7-1.2,0.9
			c0.3,0.2,0.6,0.5,0.9,0.8s0.7,1,1.2,1.8c0.3,0.5,0.6,1,0.8,1.2l0.5,0.7H306l-0.4-0.6c0,0,0-0.1-0.1-0.1l-0.3-0.4l-0.4-0.7
			l-0.5-0.7c-0.3-0.4-0.5-0.7-0.8-0.9c-0.2-0.2-0.4-0.4-0.6-0.5c-0.2-0.1-0.5-0.2-1-0.2h-0.4v4.2H300.2z M302,4.9h-0.4v3h0.5
			c0.7,0,1.2-0.1,1.4-0.2c0.3-0.1,0.5-0.3,0.6-0.5c0.1-0.2,0.2-0.5,0.2-0.8c0-0.3-0.1-0.6-0.2-0.8s-0.4-0.4-0.7-0.5
			C303.1,4.9,302.7,4.9,302,4.9z"/>
		<path fill="#231F20" d="M312.3,17h-3.3c0,0.5,0.2,0.8,0.5,1.1c0.3,0.3,0.6,0.4,1.1,0.4c0.6,0,1.2-0.2,1.7-0.6v0.9
			c-0.3,0.2-0.6,0.3-0.9,0.4s-0.6,0.1-1,0.1c-0.5,0-0.9-0.1-1.3-0.3s-0.6-0.5-0.8-0.9c-0.2-0.4-0.3-0.8-0.3-1.3
			c0-0.7,0.2-1.3,0.6-1.7s0.9-0.7,1.6-0.7c0.6,0,1.1,0.2,1.5,0.7c0.4,0.4,0.6,1,0.6,1.8V17z M309,16.4h2.4c0-0.4-0.1-0.7-0.3-0.9
			s-0.5-0.3-0.8-0.3c-0.3,0-0.6,0.1-0.8,0.3C309.2,15.8,309,16.1,309,16.4z"/>
	</g>
</g>
<g id="Calque_1">
	<g>
		<path fill="#231F20" d="M11.9,237.3l-9.5,0l0-3.2c0-1.3,0.2-2.3,0.6-3.1s1-1.4,1.7-1.8c0.8-0.4,1.6-0.7,2.5-0.7
			c0.6,0,1.2,0.1,1.8,0.4s1.1,0.6,1.5,1.1c0.5,0.5,0.8,1,1,1.6c0.1,0.4,0.2,0.7,0.3,1c0,0.3,0.1,0.9,0.1,1.7L11.9,237.3z M3.6,234.2
			l0,1.7l7.1,0l0-1.8c0-0.7,0-1.2-0.1-1.6c-0.1-0.4-0.2-0.7-0.4-0.9c-0.1-0.3-0.3-0.5-0.5-0.7c-0.7-0.7-1.5-1-2.6-1
			c-1,0-1.9,0.3-2.5,1c-0.2,0.3-0.4,0.5-0.6,0.9c-0.2,0.3-0.3,0.6-0.3,0.9C3.6,233.1,3.6,233.5,3.6,234.2z"/>
		<path fill="#231F20" d="M2.2,223l2,1.5l0,0.8l-2-0.9L2.2,223z M8.9,221.6l0,4.4c0.6,0,1.1-0.2,1.4-0.6c0.4-0.4,0.5-0.8,0.5-1.4
			c0-0.8-0.3-1.6-0.8-2.3l1.2,0c0.3,0.4,0.4,0.8,0.5,1.1c0.1,0.4,0.2,0.8,0.2,1.3c0,0.7-0.1,1.3-0.4,1.7c-0.3,0.4-0.7,0.8-1.2,1
			c-0.5,0.3-1,0.4-1.7,0.4c-1,0-1.7-0.3-2.3-0.8c-0.6-0.5-0.9-1.2-0.9-2.1c0-0.8,0.3-1.5,0.9-2s1.4-0.7,2.3-0.7H8.9z M8.1,226l0-3.2
			c-0.5,0-0.9,0.2-1.1,0.4c-0.3,0.3-0.4,0.6-0.4,1.1s0.1,0.8,0.4,1.1C7.2,225.7,7.6,225.9,8.1,226z"/>
		<path fill="#231F20" d="M2.4,220.3l0-1.2l3.7,0c-0.4-0.5-0.6-1.1-0.6-1.7c0-0.8,0.3-1.4,0.9-2c0.6-0.5,1.4-0.8,2.3-0.8
			c1,0,1.8,0.3,2.4,0.9c0.6,0.6,0.9,1.4,0.9,2.4c0,0.4,0,0.8-0.1,1.3c-0.1,0.4-0.2,0.8-0.3,1.1L2.4,220.3z M7.3,219.1l3.4,0
			c0.1-0.4,0.2-0.9,0.2-1.3c0-0.6-0.2-1-0.6-1.4c-0.4-0.3-0.9-0.5-1.5-0.5c-0.6,0-1.1,0.2-1.5,0.5c-0.4,0.3-0.6,0.8-0.6,1.3
			C6.6,218.1,6.8,218.6,7.3,219.1z"/>
		<path fill="#231F20" d="M3,212.6c0-0.2,0.1-0.4,0.2-0.5c0.1-0.1,0.3-0.2,0.5-0.2c0.2,0,0.4,0.1,0.5,0.2c0.1,0.1,0.2,0.3,0.2,0.5
			c0,0.2-0.1,0.4-0.2,0.5s-0.3,0.2-0.5,0.2c-0.2,0-0.4-0.1-0.5-0.2C3.1,213,3,212.8,3,212.6z M5.6,213.2l0-1.2l6.3,0l0,1.2
			L5.6,213.2z"/>
		<path fill="#231F20" d="M6.6,211.1l-2.3-2.3l1.3,0l0-2l1.1,0l0,2l3.1,0c0.7,0,1.1-0.3,1.1-0.9c0-0.4-0.1-0.9-0.4-1.4l1.2,0
			c0.3,0.5,0.4,1,0.4,1.6c0,0.6-0.2,1-0.5,1.4c-0.1,0.1-0.2,0.2-0.3,0.3c-0.1,0.1-0.3,0.1-0.5,0.2c-0.2,0.1-0.6,0.1-1.2,0.1l-2.8,0
			l0,1.1H6.6z"/>
		<path fill="#231F20" d="M11.5,201.9h-1.3c0.2-0.4,0.4-0.7,0.6-1.1c0.2-0.4,0.2-0.7,0.2-0.9c0-0.3-0.1-0.5-0.2-0.7
			c-0.1-0.2-0.3-0.3-0.5-0.3c-0.2,0-0.3,0.1-0.5,0.2c-0.1,0.1-0.3,0.4-0.5,0.8c-0.4,0.8-0.8,1.3-1.1,1.6s-0.7,0.4-1,0.4
			c-0.5,0-0.9-0.2-1.2-0.6c-0.3-0.4-0.5-0.9-0.5-1.5c0-0.6,0.2-1.2,0.5-1.9l1.2,0c-0.4,0.7-0.7,1.3-0.7,1.8c0,0.2,0.1,0.4,0.2,0.6
			c0.1,0.1,0.2,0.2,0.4,0.2c0.1,0,0.3-0.1,0.4-0.2c0.1-0.1,0.3-0.4,0.5-0.7l0.3-0.4c0.6-1,1.2-1.6,2-1.6c0.5,0,0.9,0.2,1.3,0.6
			s0.5,0.9,0.5,1.6c0,0.4,0,0.7-0.1,1S11.7,201.5,11.5,201.9z"/>
		<path fill="#231F20" d="M15.1,196.3l-9.5,0l0-2.2c0-1.1,0.3-2,0.8-2.6s1.3-0.9,2.3-0.9c0.9,0,1.7,0.3,2.3,0.9s0.9,1.3,0.9,2.2
			c0,0.4-0.1,0.8-0.3,1.3l3.4,0L15.1,196.3z M6.8,194.2l0,0.9l3.9,0c0.2-0.4,0.3-0.8,0.3-1.2c0-0.6-0.2-1.1-0.6-1.4
			c-0.4-0.4-0.9-0.6-1.6-0.6c-0.4,0-0.8,0.1-1.1,0.3c-0.3,0.2-0.5,0.4-0.7,0.7C6.9,193.2,6.8,193.6,6.8,194.2z"/>
		<path fill="#231F20" d="M2.2,185.2l2,1.5l0,0.8l-2-0.9L2.2,185.2z M8.9,183.9l0,4.4c0.6,0,1.1-0.2,1.4-0.6
			c0.4-0.4,0.5-0.9,0.5-1.4c0-0.8-0.3-1.6-0.8-2.3l1.2,0c0.3,0.4,0.4,0.8,0.5,1.1c0.1,0.4,0.2,0.8,0.2,1.3c0,0.7-0.1,1.3-0.4,1.7
			c-0.3,0.4-0.7,0.8-1.2,1c-0.5,0.3-1,0.4-1.7,0.4c-1,0-1.7-0.3-2.3-0.8c-0.6-0.5-0.9-1.2-0.9-2.1c0-0.8,0.3-1.5,0.9-2
			s1.4-0.7,2.3-0.7H8.9z M8.1,188.3l0-3.2c-0.5,0-0.9,0.2-1.1,0.4c-0.3,0.3-0.4,0.6-0.4,1.1c0,0.4,0.1,0.8,0.4,1.1
			C7.3,188,7.7,188.2,8.1,188.3z"/>
		<path fill="#231F20" d="M10.5,177.8l1.2,0c0.2,0.6,0.3,1.2,0.3,1.8c0,1-0.3,1.8-0.9,2.4c-0.6,0.6-1.4,0.9-2.3,0.9
			c-1,0-1.8-0.3-2.4-0.9s-0.9-1.3-0.9-2.2c0-0.3,0-0.6,0.1-0.9c0.1-0.3,0.2-0.6,0.3-1l1.3,0c-0.4,0.6-0.6,1.2-0.6,1.7
			c0,0.6,0.2,1,0.6,1.4c0.4,0.4,0.9,0.5,1.5,0.5c0.6,0,1.2-0.2,1.5-0.6c0.4-0.4,0.6-0.9,0.6-1.6C10.9,179,10.7,178.5,10.5,177.8z"/>
		<path fill="#231F20" d="M3,175.8c0-0.2,0.1-0.4,0.2-0.5c0.1-0.1,0.3-0.2,0.5-0.2c0.2,0,0.4,0.1,0.5,0.2c0.1,0.1,0.2,0.3,0.2,0.5
			c0,0.2-0.1,0.4-0.2,0.5c-0.1,0.1-0.3,0.2-0.5,0.2c-0.2,0-0.4-0.1-0.5-0.2C3.1,176.1,3,176,3,175.8z M5.6,176.4l0-1.2l6.3,0l0,1.2
			L5.6,176.4z"/>
		<path fill="#231F20" d="M5.7,173.2l-0.4,0c-1,0-1.8-0.2-2.3-0.6c-0.5-0.4-0.7-0.9-0.7-1.5c0-0.3,0-0.6,0.1-0.9l1.2,0
			c-0.1,0.2-0.1,0.4-0.1,0.6c0,0.5,0.1,0.8,0.4,1c0.3,0.2,0.7,0.3,1.4,0.3l0.4,0l0-1.1l1.1,0l0,1.1l5.2,0l0,1.2l-5.2,0l0,0.9l-1.1,0
			L5.7,173.2z"/>
		<path fill="#231F20" d="M3,169.2c0-0.2,0.1-0.4,0.2-0.5c0.1-0.1,0.3-0.2,0.5-0.2c0.2,0,0.4,0.1,0.5,0.2c0.1,0.1,0.2,0.3,0.2,0.5
			c0,0.2-0.1,0.4-0.2,0.5s-0.3,0.2-0.5,0.2c-0.2,0-0.4-0.1-0.5-0.2C3.1,169.6,3,169.4,3,169.2z M5.7,169.8l0-1.2l6.3,0l0,1.2
			L5.7,169.8z"/>
		<path fill="#231F20" d="M5.7,163.8l0-2.4l9.5,0l0,1.2l-3.3,0c0.1,0.5,0.2,1,0.2,1.4c0,0.9-0.3,1.6-0.9,2.2
			c-0.6,0.6-1.4,0.9-2.3,0.9c-1,0-1.8-0.3-2.3-0.9S5.7,164.8,5.7,163.8z M10.8,162.7l-3.9,0l0,0.8c0,0.5,0,0.9,0.1,1.1
			c0,0.2,0.1,0.3,0.2,0.5c0.1,0.1,0.2,0.3,0.3,0.4c0.4,0.3,0.9,0.5,1.4,0.5c0.6,0,1.2-0.2,1.6-0.6c0.4-0.4,0.6-0.9,0.6-1.5
			c0-0.1,0-0.3,0-0.3c0-0.1-0.1-0.3-0.2-0.6L10.8,162.7L10.8,162.7z"/>
		<path fill="#231F20" d="M12,155.8l-0.8,0c0.3,0.3,0.5,0.6,0.7,0.9c0.2,0.3,0.2,0.7,0.2,1c0,0.4-0.1,0.8-0.3,1.1
			c-0.2,0.3-0.5,0.6-0.8,0.8c-0.3,0.2-0.9,0.3-1.7,0.3l-3.6,0l0-1.2l3.6,0c0.7,0,1.1-0.1,1.4-0.3c0.3-0.2,0.4-0.5,0.4-1
			c0-0.6-0.3-1.1-0.9-1.5l-4.5,0l0-1.2l6.3,0L12,155.8z"/>
		<path fill="#231F20" d="M8.9,147.4l0,4.4c0.6,0,1.1-0.2,1.4-0.6c0.4-0.4,0.5-0.9,0.5-1.4c0-0.8-0.3-1.6-0.8-2.3l1.2,0
			c0.3,0.4,0.4,0.8,0.5,1.1c0.1,0.4,0.2,0.8,0.2,1.3c0,0.7-0.1,1.3-0.4,1.7c-0.3,0.4-0.7,0.8-1.2,1c-0.5,0.3-1,0.4-1.7,0.4
			c-1,0-1.7-0.3-2.3-0.8c-0.6-0.5-0.9-1.2-0.9-2.1c0-0.8,0.3-1.5,0.9-2s1.4-0.7,2.3-0.7H8.9z M8.2,151.8l0-3.2
			c-0.5,0-0.9,0.2-1.1,0.4c-0.3,0.3-0.4,0.6-0.4,1.1c0,0.4,0.1,0.8,0.4,1.1C7.3,151.5,7.7,151.7,8.2,151.8z"/>
		<path fill="#231F20" d="M13.6,146h-0.3c-0.2-0.2-0.4-0.3-0.6-0.4s-0.5-0.1-0.8-0.1c-0.1,0.5-0.4,0.7-0.9,0.7
			c-0.2,0-0.5-0.1-0.6-0.2c-0.2-0.2-0.3-0.4-0.3-0.6c0-0.3,0.1-0.5,0.4-0.7c0.2-0.2,0.6-0.3,0.9-0.3c0.5,0,1,0.1,1.3,0.4
			C13.2,145.1,13.5,145.5,13.6,146z"/>
		<path fill="#231F20" d="M5.7,136.4l0-1.3l6.4,2.8l0,0.4l-6.4,2.8l0-1.4l3.9-1.7L5.7,136.4z"/>
	</g>
	<g>
		<path fill="#231F20" d="M170.7,351.3h3.2v4c-1.2,0.5-2.3,0.8-3.5,0.8c-1.6,0-2.8-0.5-3.8-1.4c-0.9-0.9-1.4-2.1-1.4-3.4
			c0-1.4,0.5-2.6,1.5-3.6s2.2-1.4,3.7-1.4c0.5,0,1,0.1,1.5,0.2c0.5,0.1,1.1,0.3,1.8,0.6v1.4c-1.1-0.7-2.3-1-3.4-1
			c-1,0-1.9,0.4-2.6,1.1s-1.1,1.6-1.1,2.6c0,1.1,0.4,2,1.1,2.7s1.6,1,2.8,1c0.5,0,1.2-0.1,2-0.4l0.1,0v-2h-1.8V351.3z"/>
		<path fill="#231F20" d="M177,349.7v1.4l0.1-0.1c0.6-1,1.2-1.5,1.8-1.5c0.5,0,1,0.2,1.5,0.7l-0.7,1.1c-0.4-0.4-0.8-0.6-1.2-0.6
			c-0.4,0-0.7,0.2-1,0.6s-0.4,0.8-0.4,1.4v3.3h-1.3v-6.3H177z"/>
		<path fill="#231F20" d="M185.2,352.2v2.7c0,0.2,0.1,0.3,0.2,0.3c0.2,0,0.4-0.1,0.7-0.3v0.8c-0.3,0.2-0.5,0.3-0.7,0.4
			c-0.2,0.1-0.3,0.1-0.5,0.1c-0.5,0-0.8-0.2-0.9-0.6c-0.5,0.4-1.1,0.6-1.7,0.6c-0.4,0-0.8-0.1-1.1-0.4c-0.3-0.3-0.4-0.7-0.4-1.1
			c0-0.4,0.1-0.8,0.4-1.1c0.3-0.3,0.7-0.6,1.2-0.7l1.6-0.5v-0.3c0-0.8-0.4-1.1-1.1-1.1c-0.7,0-1.3,0.4-2,1.1v-1.4
			c0.5-0.6,1.2-0.9,2.1-0.9c0.7,0,1.2,0.2,1.6,0.5c0.1,0.1,0.3,0.3,0.4,0.5c0.1,0.2,0.2,0.4,0.2,0.6
			C185.2,351.3,185.2,351.7,185.2,352.2z M184,354.8v-1.9l-0.8,0.3c-0.4,0.2-0.7,0.3-0.9,0.5c-0.2,0.2-0.3,0.4-0.3,0.6
			c0,0.3,0.1,0.5,0.2,0.6s0.4,0.2,0.6,0.2C183.3,355.2,183.6,355.1,184,354.8z"/>
		<path fill="#231F20" d="M191.4,346.5h1.3v9.5H190c-0.9,0-1.7-0.3-2.2-0.9s-0.8-1.4-0.8-2.4c0-0.9,0.3-1.7,0.9-2.3s1.3-0.9,2.2-0.9
			c0.4,0,0.9,0.1,1.4,0.3V346.5z M191.4,354.9v-4c-0.4-0.2-0.8-0.3-1.2-0.3c-0.6,0-1.1,0.2-1.5,0.6s-0.6,1-0.6,1.6
			c0,0.6,0.2,1.1,0.5,1.5c0.2,0.2,0.4,0.4,0.6,0.4s0.6,0.1,1.2,0.1H191.4z"/>
		<path fill="#231F20" d="M195,347.1c0.2,0,0.4,0.1,0.5,0.2s0.2,0.3,0.2,0.5c0,0.2-0.1,0.4-0.2,0.5s-0.3,0.2-0.5,0.2
			c-0.2,0-0.4-0.1-0.5-0.2c-0.1-0.1-0.2-0.3-0.2-0.5c0-0.2,0.1-0.4,0.2-0.5C194.6,347.1,194.8,347.1,195,347.1z M194.4,349.7h1.2
			v6.3h-1.2V349.7z"/>
		<path fill="#231F20" d="M202.8,353h-4.4c0,0.6,0.2,1.1,0.6,1.4s0.9,0.5,1.4,0.5c0.8,0,1.6-0.3,2.3-0.8v1.2
			c-0.4,0.3-0.8,0.4-1.1,0.5s-0.8,0.2-1.3,0.2c-0.7,0-1.3-0.1-1.7-0.4s-0.8-0.7-1-1.2c-0.3-0.5-0.4-1-0.4-1.7c0-1,0.3-1.7,0.8-2.3
			c0.5-0.6,1.2-0.9,2.1-0.9c0.8,0,1.5,0.3,2,0.9s0.7,1.4,0.7,2.3V353z M198.4,352.2h3.2c0-0.5-0.2-0.9-0.4-1.1s-0.6-0.4-1.1-0.4
			s-0.8,0.1-1.1,0.4S198.5,351.7,198.4,352.2z"/>
		<path fill="#231F20" d="M205.4,349.7v0.8c0.6-0.6,1.2-0.9,1.9-0.9c0.4,0,0.8,0.1,1.1,0.3c0.3,0.2,0.6,0.5,0.8,0.8
			c0.2,0.4,0.3,0.9,0.3,1.7v3.6h-1.2v-3.6c0-0.6-0.1-1.1-0.3-1.4c-0.2-0.3-0.5-0.4-1-0.4c-0.6,0-1.1,0.3-1.5,0.9v4.5h-1.3v-6.3
			H205.4z"/>
		<path fill="#231F20" d="M210.3,350.7l2.3-2.3v1.3h2v1.1h-2v3.1c0,0.7,0.3,1.1,0.9,1.1c0.4,0,0.9-0.1,1.4-0.4v1.2
			c-0.5,0.3-1,0.4-1.6,0.4c-0.6,0-1-0.2-1.4-0.5c-0.1-0.1-0.2-0.2-0.3-0.3c-0.1-0.1-0.1-0.3-0.2-0.5c-0.1-0.2-0.1-0.6-0.1-1.2v-2.8
			h-1.1V350.7z"/>
		<path fill="#231F20" d="M219.7,346.5h1.2v4.1c0.5-0.6,1.2-1,1.9-1c0.4,0,0.8,0.1,1.1,0.3s0.6,0.5,0.7,0.9s0.2,0.9,0.2,1.6v3.6
			h-1.2v-3.9c0-0.5-0.1-0.8-0.3-1.1c-0.2-0.3-0.5-0.4-0.9-0.4c-0.3,0-0.5,0.1-0.8,0.2s-0.5,0.4-0.8,0.7v4.5h-1.2V346.5z"/>
		<path fill="#231F20" d="M230.1,349.7h1.4l-4.5,9.5h-1.4l2.1-4.6l-2.4-4.9h1.4l1.7,3.6L230.1,349.7z"/>
		<path fill="#231F20" d="M236.5,346.5h1.2v9.5h-2.7c-0.9,0-1.7-0.3-2.2-0.9s-0.8-1.4-0.8-2.4c0-0.9,0.3-1.7,0.9-2.3
			s1.3-0.9,2.2-0.9c0.4,0,0.9,0.1,1.4,0.3V346.5z M236.5,354.9v-4c-0.4-0.2-0.8-0.3-1.2-0.3c-0.6,0-1.1,0.2-1.5,0.6s-0.6,1-0.6,1.6
			c0,0.6,0.2,1.1,0.5,1.5c0.2,0.2,0.4,0.4,0.6,0.4c0.2,0.1,0.6,0.1,1.2,0.1H236.5z"/>
		<path fill="#231F20" d="M240.8,349.7v1.4l0.1-0.1c0.6-1,1.2-1.5,1.8-1.5c0.5,0,1,0.2,1.5,0.7l-0.7,1.1c-0.4-0.4-0.8-0.6-1.2-0.6
			c-0.4,0-0.7,0.2-1,0.6s-0.4,0.8-0.4,1.4v3.3h-1.2v-6.3H240.8z"/>
		<path fill="#231F20" d="M249,352.2v2.7c0,0.2,0.1,0.3,0.2,0.3c0.2,0,0.4-0.1,0.7-0.3v0.8c-0.3,0.2-0.5,0.3-0.7,0.4
			c-0.2,0.1-0.3,0.1-0.5,0.1c-0.5,0-0.8-0.2-0.9-0.6c-0.5,0.4-1.1,0.6-1.7,0.6c-0.4,0-0.8-0.1-1.1-0.4c-0.3-0.3-0.4-0.7-0.4-1.1
			c0-0.4,0.1-0.8,0.4-1.1c0.3-0.3,0.7-0.6,1.2-0.7l1.6-0.5v-0.3c0-0.8-0.4-1.1-1.1-1.1c-0.7,0-1.3,0.4-2,1.1v-1.4
			c0.5-0.6,1.2-0.9,2.1-0.9c0.7,0,1.2,0.2,1.6,0.5c0.1,0.1,0.3,0.3,0.4,0.5c0.1,0.2,0.2,0.4,0.2,0.6
			C248.9,351.3,249,351.7,249,352.2z M247.7,354.8v-1.9l-0.8,0.3c-0.4,0.2-0.7,0.3-0.9,0.5c-0.2,0.2-0.3,0.4-0.3,0.6
			c0,0.3,0.1,0.5,0.2,0.6s0.4,0.2,0.6,0.2C247,355.2,247.4,355.1,247.7,354.8z"/>
		<path fill="#231F20" d="M255,356v-0.8c-0.3,0.3-0.6,0.5-0.9,0.7s-0.7,0.2-1,0.2c-0.4,0-0.8-0.1-1.1-0.3c-0.3-0.2-0.6-0.5-0.8-0.8
			c-0.2-0.3-0.3-0.9-0.3-1.7v-3.6h1.2v3.6c0,0.7,0.1,1.1,0.3,1.4s0.5,0.4,1,0.4c0.6,0,1.1-0.3,1.5-0.9v-4.5h1.2v6.3H255z"/>
		<path fill="#231F20" d="M258,346.5h1.2v9.5H258V346.5z"/>
		<path fill="#231F20" d="M261.7,347.1c0.2,0,0.4,0.1,0.5,0.2c0.1,0.1,0.2,0.3,0.2,0.5c0,0.2-0.1,0.4-0.2,0.5
			c-0.1,0.1-0.3,0.2-0.5,0.2c-0.2,0-0.4-0.1-0.5-0.2c-0.1-0.1-0.2-0.3-0.2-0.5c0-0.2,0.1-0.4,0.2-0.5
			C261.3,347.1,261.5,347.1,261.7,347.1z M261.1,349.7h1.2v6.3h-1.2V349.7z"/>
		<path fill="#231F20" d="M267.1,349.7h2.4v9.5h-1.2v-3.3c-0.5,0.1-1,0.2-1.4,0.2c-0.9,0-1.6-0.3-2.2-0.9c-0.6-0.6-0.9-1.4-0.9-2.3
			c0-1,0.3-1.8,0.9-2.3C265.2,350,266.1,349.7,267.1,349.7z M268.2,354.8v-3.9h-0.8c-0.5,0-0.9,0-1.1,0.1c-0.2,0-0.3,0.1-0.5,0.2
			c-0.1,0.1-0.3,0.2-0.4,0.3c-0.3,0.4-0.5,0.9-0.5,1.4c0,0.6,0.2,1.2,0.6,1.6c0.4,0.4,0.9,0.6,1.5,0.6c0.1,0,0.3,0,0.3,0
			c0.1,0,0.3-0.1,0.6-0.2L268.2,354.8L268.2,354.8z"/>
		<path fill="#231F20" d="M275.1,356v-0.8c-0.3,0.3-0.6,0.5-0.9,0.7s-0.7,0.2-1,0.2c-0.4,0-0.8-0.1-1.1-0.3
			c-0.3-0.2-0.6-0.5-0.8-0.8c-0.2-0.3-0.3-0.9-0.3-1.7v-3.6h1.2v3.6c0,0.7,0.1,1.1,0.3,1.4s0.5,0.4,1,0.4c0.6,0,1.1-0.3,1.5-0.9
			v-4.5h1.2v6.3H275.1z"/>
		<path fill="#231F20" d="M283.5,353h-4.4c0,0.6,0.2,1.1,0.6,1.4s0.9,0.5,1.4,0.5c0.8,0,1.6-0.3,2.3-0.8v1.2
			c-0.4,0.3-0.8,0.4-1.1,0.5s-0.8,0.2-1.3,0.2c-0.7,0-1.3-0.1-1.7-0.4c-0.4-0.3-0.8-0.7-1-1.2c-0.3-0.5-0.4-1-0.4-1.7
			c0-1,0.3-1.7,0.8-2.3c0.5-0.6,1.2-0.9,2.1-0.9c0.8,0,1.5,0.3,2,0.9c0.5,0.6,0.7,1.4,0.7,2.3V353z M279.1,352.2h3.2
			c0-0.5-0.2-0.9-0.4-1.1c-0.3-0.3-0.6-0.4-1.1-0.4c-0.4,0-0.8,0.1-1.1,0.4S279.2,351.7,279.1,352.2z"/>
		<path fill="#231F20" d="M284.9,357.7v-0.3c0.2-0.2,0.3-0.4,0.4-0.6c0.1-0.2,0.1-0.5,0.1-0.8c-0.5-0.1-0.7-0.4-0.7-0.9
			c0-0.2,0.1-0.5,0.2-0.6c0.2-0.2,0.4-0.3,0.6-0.3c0.3,0,0.5,0.1,0.7,0.4s0.3,0.6,0.3,0.9c0,0.5-0.1,1-0.4,1.3
			C285.8,357.2,285.4,357.5,284.9,357.7z"/>
		<path fill="#231F20" d="M294.9,346.5h1.2v9.5h-2.7c-0.9,0-1.7-0.3-2.2-0.9s-0.8-1.4-0.8-2.4c0-0.9,0.3-1.7,0.9-2.3
			s1.3-0.9,2.2-0.9c0.4,0,0.9,0.1,1.4,0.3V346.5z M294.9,354.9v-4c-0.4-0.2-0.8-0.3-1.2-0.3c-0.6,0-1.1,0.2-1.5,0.6s-0.6,1-0.6,1.6
			c0,0.6,0.2,1.1,0.5,1.5c0.2,0.2,0.4,0.4,0.6,0.4c0.2,0.1,0.6,0.1,1.2,0.1H294.9z"/>
		<path fill="#231F20" d="M297.8,346.5h1.2v4.1c0.5-0.6,1.2-1,1.9-1c0.4,0,0.8,0.1,1.1,0.3c0.3,0.2,0.6,0.5,0.7,0.9s0.2,0.9,0.2,1.6
			v3.6h-1.2v-3.9c0-0.5-0.1-0.8-0.3-1.1c-0.2-0.3-0.5-0.4-0.9-0.4c-0.3,0-0.5,0.1-0.8,0.2c-0.2,0.1-0.5,0.4-0.8,0.7v4.5h-1.2V346.5z
			"/>
		<path fill="#231F20" d="M304,356.1l2.7-9.8h1l-2.7,9.8H304z"/>
		<path fill="#231F20" d="M312.9,346.5h1.3v9.5h-2.7c-0.9,0-1.7-0.3-2.2-0.9s-0.8-1.4-0.8-2.4c0-0.9,0.3-1.7,0.9-2.3
			s1.3-0.9,2.2-0.9c0.4,0,0.9,0.1,1.4,0.3V346.5z M312.9,354.9v-4c-0.4-0.2-0.8-0.3-1.2-0.3c-0.6,0-1.1,0.2-1.5,0.6s-0.5,1-0.5,1.6
			c0,0.6,0.2,1.1,0.5,1.5c0.2,0.2,0.4,0.4,0.6,0.4c0.2,0.1,0.6,0.1,1.2,0.1H312.9z"/>
		<path fill="#231F20" d="M315.9,346.5h1.2v9.5h-1.2V346.5z"/>
	</g>
	<g>
		<path fill="#231F20" d="M103.9,133.6h1.4v8.3h4.3v1.2h-5.7V133.6z"/>
		<path fill="#231F20" d="M113.6,136.8c1,0,1.8,0.3,2.4,0.9s1,1.4,1,2.3c0,0.9-0.3,1.7-1,2.3s-1.5,0.9-2.4,0.9
			c-0.9,0-1.7-0.3-2.4-0.9s-1-1.4-1-2.3c0-0.9,0.3-1.7,1-2.3S112.7,136.8,113.6,136.8z M113.6,137.9c-0.6,0-1.1,0.2-1.5,0.6
			s-0.6,0.9-0.6,1.5c0,0.6,0.2,1.1,0.6,1.5s0.9,0.6,1.5,0.6c0.6,0,1.1-0.2,1.5-0.6s0.6-0.9,0.6-1.5c0-0.6-0.2-1.1-0.6-1.5
			S114.2,137.9,113.6,137.9z"/>
		<path fill="#231F20" d="M119,134.2c0.2,0,0.4,0.1,0.5,0.2s0.2,0.3,0.2,0.5c0,0.2-0.1,0.4-0.2,0.5s-0.3,0.2-0.5,0.2
			c-0.2,0-0.4-0.1-0.5-0.2s-0.2-0.3-0.2-0.5c0-0.2,0.1-0.4,0.2-0.5S118.8,134.2,119,134.2z M118.4,136.8h1.2v6.3h-1.2V136.8z"/>
		<path fill="#231F20" d="M129.5,133.6h1.3v9.5h-2.7c-0.9,0-1.7-0.3-2.2-0.9s-0.8-1.4-0.8-2.4c0-0.9,0.3-1.7,0.9-2.3
			s1.3-0.9,2.2-0.9c0.4,0,0.9,0.1,1.4,0.3V133.6z M129.5,142v-4c-0.4-0.2-0.8-0.3-1.2-0.3c-0.6,0-1.1,0.2-1.5,0.6s-0.6,1-0.6,1.6
			c0,0.6,0.2,1.1,0.5,1.5c0.2,0.2,0.4,0.4,0.6,0.4s0.6,0.1,1.2,0.1H129.5z"/>
		<path fill="#231F20" d="M137.8,140.1h-4.4c0,0.6,0.2,1.1,0.6,1.4s0.9,0.5,1.4,0.5c0.8,0,1.6-0.3,2.3-0.8v1.2
			c-0.4,0.3-0.8,0.4-1.1,0.5s-0.8,0.2-1.3,0.2c-0.7,0-1.3-0.1-1.7-0.4s-0.8-0.7-1-1.2s-0.4-1-0.4-1.7c0-1,0.3-1.7,0.8-2.3
			s1.2-0.9,2.1-0.9c0.8,0,1.5,0.3,2,0.9s0.7,1.4,0.7,2.3V140.1z M133.4,139.3h3.2c0-0.5-0.2-0.9-0.4-1.1s-0.6-0.4-1.1-0.4
			s-0.8,0.1-1.1,0.4S133.5,138.8,133.4,139.3z"/>
		<path fill="#231F20" d="M143.2,143.1v-9.5h3.2c1.3,0,2.3,0.2,3.1,0.6s1.4,1,1.8,1.7s0.7,1.6,0.7,2.5c0,0.6-0.1,1.2-0.4,1.8
			s-0.6,1.1-1.1,1.5c-0.5,0.5-1,0.8-1.6,1c-0.4,0.1-0.7,0.2-1,0.3s-0.9,0.1-1.7,0.1H143.2z M146.3,134.8h-1.7v7.1h1.8
			c0.7,0,1.2,0,1.6-0.1s0.7-0.2,0.9-0.4s0.5-0.3,0.7-0.5c0.7-0.7,1-1.5,1-2.6c0-1-0.3-1.9-1-2.5c-0.3-0.2-0.5-0.4-0.9-0.6
			s-0.6-0.3-0.9-0.3S147,134.8,146.3,134.8z"/>
		<path fill="#231F20" d="M157.5,139.3v2.7c0,0.2,0.1,0.3,0.2,0.3c0.2,0,0.4-0.1,0.7-0.3v0.8c-0.3,0.2-0.5,0.3-0.7,0.4
			s-0.3,0.1-0.5,0.1c-0.5,0-0.8-0.2-0.9-0.6c-0.5,0.4-1.1,0.6-1.7,0.6c-0.4,0-0.8-0.1-1.1-0.4s-0.4-0.7-0.4-1.1
			c0-0.4,0.1-0.8,0.4-1.1s0.7-0.6,1.2-0.7l1.6-0.5V139c0-0.8-0.4-1.1-1.1-1.1c-0.7,0-1.3,0.4-2,1.1v-1.4c0.5-0.6,1.2-0.9,2.1-0.9
			c0.7,0,1.2,0.2,1.6,0.5c0.1,0.1,0.3,0.3,0.4,0.5s0.2,0.4,0.2,0.6S157.5,138.8,157.5,139.3z M156.3,141.9V140l-0.8,0.3
			c-0.4,0.2-0.7,0.3-0.9,0.5s-0.3,0.4-0.3,0.6c0,0.3,0.1,0.5,0.2,0.6s0.4,0.2,0.6,0.2C155.6,142.3,155.9,142.2,156.3,141.9z"/>
		<path fill="#231F20" d="M160.9,136.8v1.4l0.1-0.1c0.6-1,1.2-1.5,1.8-1.5c0.5,0,1,0.2,1.5,0.7l-0.7,1.1c-0.4-0.4-0.8-0.6-1.2-0.6
			c-0.4,0-0.7,0.2-1,0.6s-0.4,0.8-0.4,1.4v3.3h-1.3v-6.3H160.9z"/>
		<path fill="#231F20" d="M169.4,141.6v1.2c-0.6,0.2-1.2,0.3-1.8,0.3c-1,0-1.8-0.3-2.4-0.9s-0.9-1.4-0.9-2.3c0-1,0.3-1.8,0.9-2.4
			s1.3-0.9,2.2-0.9c0.3,0,0.6,0,0.9,0.1s0.6,0.2,1,0.3v1.3c-0.6-0.4-1.2-0.6-1.8-0.6c-0.6,0-1,0.2-1.4,0.6s-0.5,0.9-0.5,1.5
			c0,0.6,0.2,1.2,0.6,1.5s0.9,0.6,1.6,0.6C168.3,142,168.8,141.9,169.4,141.6z"/>
		<path fill="#231F20" d="M174.7,136.8h1.4l-4.5,9.5h-1.4l2.1-4.6l-2.4-4.9h1.4l1.7,3.6L174.7,136.8z"/>
		<path fill="#231F20" d="M128.2,154.8h1.3l-2.8,6.4h-0.4l-2.8-6.4h1.4l1.7,3.9L128.2,154.8z"/>
		<path fill="#231F20" d="M134.4,157.3v2.7c0,0.2,0.1,0.3,0.2,0.3c0.2,0,0.4-0.1,0.7-0.3v0.8c-0.3,0.2-0.5,0.3-0.7,0.4
			s-0.3,0.1-0.5,0.1c-0.5,0-0.8-0.2-0.9-0.6c-0.5,0.4-1.1,0.6-1.7,0.6c-0.4,0-0.8-0.1-1.1-0.4s-0.4-0.7-0.4-1.1
			c0-0.4,0.1-0.8,0.4-1.1s0.7-0.6,1.2-0.7l1.6-0.5V157c0-0.8-0.4-1.1-1.1-1.1c-0.7,0-1.3,0.4-2,1.1v-1.4c0.5-0.6,1.2-0.9,2.1-0.9
			c0.7,0,1.2,0.2,1.6,0.5c0.1,0.1,0.3,0.3,0.4,0.5s0.2,0.4,0.2,0.6S134.4,156.8,134.4,157.3z M133.2,159.9V158l-0.8,0.3
			c-0.4,0.2-0.7,0.3-0.9,0.5s-0.3,0.4-0.3,0.6c0,0.3,0.1,0.5,0.2,0.6s0.4,0.2,0.6,0.2C132.5,160.3,132.8,160.2,133.2,159.9z"/>
		<path fill="#231F20" d="M136.5,151.6h1.2v9.5h-1.2V151.6z"/>
		<path fill="#231F20" d="M140.1,152.2c0.2,0,0.4,0.1,0.5,0.2s0.2,0.3,0.2,0.5c0,0.2-0.1,0.4-0.2,0.5s-0.3,0.2-0.5,0.2
			c-0.2,0-0.4-0.1-0.5-0.2s-0.2-0.3-0.2-0.5c0-0.2,0.1-0.4,0.2-0.5S140,152.2,140.1,152.2z M139.5,154.8h1.2v6.3h-1.2V154.8z"/>
		<path fill="#231F20" d="M146.8,151.6h1.3v9.5h-2.7c-0.9,0-1.7-0.3-2.2-0.9s-0.8-1.4-0.8-2.4c0-0.9,0.3-1.7,0.9-2.3
			s1.3-0.9,2.2-0.9c0.4,0,0.9,0.1,1.4,0.3V151.6z M146.8,160v-4c-0.4-0.2-0.8-0.3-1.2-0.3c-0.6,0-1.1,0.2-1.5,0.6s-0.6,1-0.6,1.6
			c0,0.6,0.2,1.1,0.5,1.5c0.2,0.2,0.4,0.4,0.6,0.4s0.6,0.1,1.2,0.1H146.8z"/>
		<path fill="#231F20" d="M155.1,158.1h-4.4c0,0.6,0.2,1.1,0.6,1.4s0.9,0.5,1.4,0.5c0.8,0,1.6-0.3,2.3-0.8v1.2
			c-0.4,0.3-0.8,0.4-1.1,0.5s-0.8,0.2-1.3,0.2c-0.7,0-1.3-0.1-1.7-0.4s-0.8-0.7-1-1.2s-0.4-1-0.4-1.7c0-1,0.3-1.7,0.8-2.3
			s1.2-0.9,2.1-0.9c0.8,0,1.5,0.3,2,0.9s0.7,1.4,0.7,2.3V158.1z M150.7,157.3h3.2c0-0.5-0.2-0.9-0.4-1.1s-0.6-0.4-1.1-0.4
			s-0.8,0.1-1.1,0.4S150.8,156.8,150.7,157.3z"/>
	</g>
	<g>
		<path fill="#231F20" d="M120.2,88.1h1.4v8.3h4.3v1.2h-5.7V88.1z"/>
		<path fill="#231F20" d="M127.5,88.7c0.2,0,0.4,0.1,0.5,0.2s0.2,0.3,0.2,0.5c0,0.2-0.1,0.4-0.2,0.5s-0.3,0.2-0.5,0.2
			c-0.2,0-0.4-0.1-0.5-0.2s-0.2-0.3-0.2-0.5c0-0.2,0.1-0.4,0.2-0.5S127.3,88.7,127.5,88.7z M126.9,91.3h1.2v6.3h-1.2V91.3z"/>
		<path fill="#231F20" d="M131.2,91.3v0.8c0.6-0.6,1.2-0.9,1.9-0.9c0.4,0,0.8,0.1,1.1,0.3s0.6,0.5,0.8,0.8s0.3,0.9,0.3,1.7v3.6h-1.2
			V94c0-0.6-0.1-1.1-0.3-1.4s-0.5-0.4-1-0.4c-0.6,0-1.1,0.3-1.5,0.9v4.5h-1.3v-6.3H131.2z"/>
		<path fill="#231F20" d="M142.3,94.6h-4.4c0,0.6,0.2,1.1,0.6,1.4s0.9,0.5,1.4,0.5c0.8,0,1.6-0.3,2.3-0.8V97
			c-0.4,0.3-0.8,0.4-1.1,0.5s-0.8,0.2-1.3,0.2c-0.7,0-1.3-0.1-1.7-0.4s-0.8-0.7-1-1.2s-0.4-1-0.4-1.7c0-1,0.3-1.7,0.8-2.3
			s1.2-0.9,2.1-0.9c0.8,0,1.5,0.3,2,0.9s0.7,1.4,0.7,2.3V94.6z M137.9,93.8h3.2c0-0.5-0.2-0.9-0.4-1.1s-0.6-0.4-1.1-0.4
			s-0.8,0.1-1.1,0.4S138,93.3,137.9,93.8z M140.9,87.9l-1.5,2.1h-0.8l0.9-2.1H140.9z"/>
		<path fill="#231F20" d="M147.6,93.8v2.7c0,0.2,0.1,0.3,0.2,0.3c0.2,0,0.4-0.1,0.7-0.3v0.8c-0.3,0.2-0.5,0.3-0.7,0.4
			s-0.3,0.1-0.5,0.1c-0.5,0-0.8-0.2-0.9-0.6c-0.5,0.4-1.1,0.6-1.7,0.6c-0.4,0-0.8-0.1-1.1-0.4s-0.4-0.7-0.4-1.1
			c0-0.4,0.1-0.8,0.4-1.1s0.7-0.6,1.2-0.7l1.6-0.5v-0.3c0-0.8-0.4-1.1-1.1-1.1c-0.7,0-1.3,0.4-2,1.1v-1.4c0.5-0.6,1.2-0.9,2.1-0.9
			c0.7,0,1.2,0.2,1.6,0.5c0.1,0.1,0.3,0.3,0.4,0.5s0.2,0.4,0.2,0.6S147.6,93.3,147.6,93.8z M146.4,96.4v-1.9l-0.8,0.3
			c-0.4,0.2-0.7,0.3-0.9,0.5s-0.3,0.4-0.3,0.6c0,0.3,0.1,0.5,0.2,0.6s0.4,0.2,0.6,0.2C145.7,96.9,146,96.7,146.4,96.4z"/>
		<path fill="#231F20" d="M150.2,88.7c0.2,0,0.4,0.1,0.5,0.2s0.2,0.3,0.2,0.5c0,0.2-0.1,0.4-0.2,0.5s-0.3,0.2-0.5,0.2
			c-0.2,0-0.4-0.1-0.5-0.2s-0.2-0.3-0.2-0.5c0-0.2,0.1-0.4,0.2-0.5S150.1,88.7,150.2,88.7z M149.6,91.3h1.2v6.3h-1.2V91.3z"/>
		<path fill="#231F20" d="M154,91.3v1.4l0.1-0.1c0.6-1,1.2-1.5,1.8-1.5c0.5,0,1,0.2,1.5,0.7l-0.7,1.1c-0.4-0.4-0.8-0.6-1.2-0.6
			c-0.4,0-0.7,0.2-1,0.6s-0.4,0.8-0.4,1.4v3.3h-1.3v-6.3H154z"/>
		<path fill="#231F20" d="M163.3,94.6h-4.4c0,0.6,0.2,1.1,0.6,1.4s0.9,0.5,1.4,0.5c0.8,0,1.6-0.3,2.3-0.8V97
			c-0.4,0.3-0.8,0.4-1.1,0.5s-0.8,0.2-1.3,0.2c-0.7,0-1.3-0.1-1.7-0.4s-0.8-0.7-1-1.2s-0.4-1-0.4-1.7c0-1,0.3-1.7,0.8-2.3
			s1.2-0.9,2.1-0.9c0.8,0,1.5,0.3,2,0.9s0.7,1.4,0.7,2.3V94.6z M158.9,93.8h3.2c0-0.5-0.2-0.9-0.4-1.1s-0.6-0.4-1.1-0.4
			s-0.8,0.1-1.1,0.4S159,93.3,158.9,93.8z"/>
		<path fill="#231F20" d="M114.9,106.1h1.2v9.5h-1.2V106.1z"/>
		<path fill="#231F20" d="M121.9,111.8v2.7c0,0.2,0.1,0.3,0.2,0.3c0.2,0,0.4-0.1,0.7-0.3v0.8c-0.3,0.2-0.5,0.3-0.7,0.4
			s-0.3,0.1-0.5,0.1c-0.5,0-0.8-0.2-0.9-0.6c-0.5,0.4-1.1,0.6-1.7,0.6c-0.4,0-0.8-0.1-1.1-0.4s-0.4-0.7-0.4-1.1
			c0-0.4,0.1-0.8,0.4-1.1s0.7-0.6,1.2-0.7l1.6-0.5v-0.3c0-0.8-0.4-1.1-1.1-1.1c-0.7,0-1.3,0.4-2,1.1v-1.4c0.5-0.6,1.2-0.9,2.1-0.9
			c0.7,0,1.2,0.2,1.6,0.5c0.1,0.1,0.3,0.3,0.4,0.5s0.2,0.4,0.2,0.6S121.9,111.3,121.9,111.8z M120.7,114.4v-1.9l-0.8,0.3
			c-0.4,0.2-0.7,0.3-0.9,0.5s-0.3,0.4-0.3,0.6c0,0.3,0.1,0.5,0.2,0.6s0.4,0.2,0.6,0.2C120,114.9,120.4,114.7,120.7,114.4z"/>
		<path fill="#231F20" d="M129.1,111.1v4.6h-1.3v-3.5c0-0.7-0.1-1.2-0.3-1.5s-0.5-0.4-1-0.4c-0.3,0-0.5,0.1-0.7,0.2
			s-0.5,0.3-0.7,0.6v4.6h-1.2v-6.3h1.2v0.8c0.6-0.6,1.3-1,1.9-1c0.8,0,1.4,0.4,1.9,1.1c0.7-0.8,1.4-1.1,2.1-1.1
			c0.6,0,1.1,0.2,1.5,0.7s0.6,1.1,0.6,2v3.7h-1.2v-3.7c0-0.5-0.1-0.9-0.3-1.2s-0.5-0.4-0.9-0.4C130,110.3,129.6,110.5,129.1,111.1z"
			/>
		<path fill="#231F20" d="M135.4,106.7c0.2,0,0.4,0.1,0.5,0.2s0.2,0.3,0.2,0.5c0,0.2-0.1,0.4-0.2,0.5s-0.3,0.2-0.5,0.2
			c-0.2,0-0.4-0.1-0.5-0.2s-0.2-0.3-0.2-0.5c0-0.2,0.1-0.4,0.2-0.5S135.2,106.7,135.4,106.7z M134.8,109.3h1.2v6.3h-1.2V109.3z"/>
		<path fill="#231F20" d="M139.1,109.3v0.8c0.6-0.6,1.2-0.9,1.9-0.9c0.4,0,0.8,0.1,1.1,0.3s0.6,0.5,0.8,0.8s0.3,0.9,0.3,1.7v3.6
			h-1.2V112c0-0.6-0.1-1.1-0.3-1.4s-0.5-0.4-1-0.4c-0.6,0-1.1,0.3-1.5,0.9v4.5h-1.3v-6.3H139.1z"/>
		<path fill="#231F20" d="M148.8,111.8v2.7c0,0.2,0.1,0.3,0.2,0.3c0.2,0,0.4-0.1,0.7-0.3v0.8c-0.3,0.2-0.5,0.3-0.7,0.4
			s-0.3,0.1-0.5,0.1c-0.5,0-0.8-0.2-0.9-0.6c-0.5,0.4-1.1,0.6-1.7,0.6c-0.4,0-0.8-0.1-1.1-0.4s-0.4-0.7-0.4-1.1
			c0-0.4,0.1-0.8,0.4-1.1s0.7-0.6,1.2-0.7l1.6-0.5v-0.3c0-0.8-0.4-1.1-1.1-1.1c-0.7,0-1.3,0.4-2,1.1v-1.4c0.5-0.6,1.2-0.9,2.1-0.9
			c0.7,0,1.2,0.2,1.6,0.5c0.1,0.1,0.3,0.3,0.4,0.5s0.2,0.4,0.2,0.6S148.8,111.3,148.8,111.8z M147.5,114.4v-1.9l-0.8,0.3
			c-0.4,0.2-0.7,0.3-0.9,0.5s-0.3,0.4-0.3,0.6c0,0.3,0.1,0.5,0.2,0.6s0.4,0.2,0.6,0.2C146.8,114.9,147.2,114.7,147.5,114.4z"/>
		<path fill="#231F20" d="M151.4,106.7c0.2,0,0.4,0.1,0.5,0.2s0.2,0.3,0.2,0.5c0,0.2-0.1,0.4-0.2,0.5s-0.3,0.2-0.5,0.2
			c-0.2,0-0.4-0.1-0.5-0.2s-0.2-0.3-0.2-0.5c0-0.2,0.1-0.4,0.2-0.5S151.2,106.7,151.4,106.7z M150.8,109.3h1.2v6.3h-1.2V109.3z"/>
		<path fill="#231F20" d="M155.2,109.3v1.4l0.1-0.1c0.6-1,1.2-1.5,1.8-1.5c0.5,0,1,0.2,1.5,0.7l-0.7,1.1c-0.4-0.4-0.8-0.6-1.2-0.6
			c-0.4,0-0.7,0.2-1,0.6s-0.4,0.8-0.4,1.4v3.3h-1.3v-6.3H155.2z"/>
		<path fill="#231F20" d="M164.5,112.6h-4.4c0,0.6,0.2,1.1,0.6,1.4s0.9,0.5,1.4,0.5c0.8,0,1.6-0.3,2.3-0.8v1.2
			c-0.4,0.3-0.8,0.4-1.1,0.5s-0.8,0.2-1.3,0.2c-0.7,0-1.3-0.1-1.7-0.4s-0.8-0.7-1-1.2s-0.4-1-0.4-1.7c0-1,0.3-1.7,0.8-2.3
			s1.2-0.9,2.1-0.9c0.8,0,1.5,0.3,2,0.9s0.7,1.4,0.7,2.3V112.6z M160.1,111.8h3.2c0-0.5-0.2-0.9-0.4-1.1s-0.6-0.4-1.1-0.4
			s-0.8,0.1-1.1,0.4S160.2,111.3,160.1,111.8z"/>
	</g>
	<g>
		<path fill="#231F20" d="M246.8,88.4h1.1v8.2h-1l-5.5-6.3v6.3h-1.1v-8.2h0.9l5.5,6.4V88.4z"/>
		<path fill="#231F20" d="M252.1,91.2c0.8,0,1.5,0.3,2,0.8s0.8,1.2,0.8,2c0,0.8-0.3,1.4-0.8,1.9s-1.2,0.8-2.1,0.8
			c-0.8,0-1.5-0.3-2-0.8s-0.8-1.2-0.8-2c0-0.8,0.3-1.4,0.8-2S251.2,91.2,252.1,91.2z M252,92.2c-0.5,0-0.9,0.2-1.3,0.5
			s-0.5,0.8-0.5,1.3c0,0.5,0.2,0.9,0.5,1.3s0.8,0.5,1.3,0.5c0.5,0,1-0.2,1.3-0.5s0.5-0.8,0.5-1.3c0-0.5-0.2-0.9-0.5-1.3
			S252.5,92.2,252,92.2z"/>
		<path fill="#231F20" d="M257.2,91.2v0.7c0.5-0.5,1-0.8,1.6-0.8c0.3,0,0.6,0.1,0.9,0.3s0.5,0.4,0.7,0.7s0.2,0.8,0.2,1.4v3.1h-1.1
			v-3.1c0-0.6-0.1-0.9-0.3-1.2s-0.4-0.4-0.8-0.4c-0.5,0-0.9,0.3-1.3,0.8v3.8h-1.1v-5.4H257.2z"/>
		<path fill="#231F20" d="M265.5,88.4h1.1v8.2h-1.1V88.4z"/>
		<path fill="#231F20" d="M268.6,89c0.2,0,0.3,0.1,0.5,0.2s0.2,0.3,0.2,0.4c0,0.2-0.1,0.3-0.2,0.4s-0.3,0.2-0.5,0.2
			c-0.2,0-0.3-0.1-0.4-0.2s-0.2-0.3-0.2-0.4c0-0.2,0.1-0.3,0.2-0.4S268.5,89,268.6,89z M268.1,91.2h1.1v5.4h-1.1V91.2z"/>
		<path fill="#231F20" d="M271.8,91.2v0.7c0.5-0.5,1-0.8,1.6-0.8c0.3,0,0.6,0.1,0.9,0.3s0.5,0.4,0.7,0.7s0.2,0.8,0.2,1.4v3.1h-1.1
			v-3.1c0-0.6-0.1-0.9-0.3-1.2s-0.4-0.4-0.8-0.4c-0.5,0-0.9,0.3-1.3,0.8v3.8h-1.1v-5.4H271.8z"/>
		<path fill="#231F20" d="M281.3,94h-3.8c0,0.5,0.2,0.9,0.5,1.2s0.7,0.5,1.2,0.5c0.7,0,1.4-0.2,1.9-0.7v1c-0.3,0.2-0.7,0.4-1,0.5
			s-0.7,0.1-1.1,0.1c-0.6,0-1.1-0.1-1.4-0.4s-0.7-0.6-0.9-1s-0.3-0.9-0.3-1.4c0-0.8,0.2-1.5,0.7-2s1.1-0.8,1.8-0.8
			c0.7,0,1.3,0.2,1.7,0.8s0.6,1.2,0.6,2V94z M277.5,93.4h2.7c0-0.4-0.2-0.8-0.4-1s-0.5-0.3-0.9-0.3s-0.7,0.1-0.9,0.3
			S277.6,93,277.5,93.4z M280.1,88.3l-1.3,1.8h-0.7l0.8-1.8H280.1z"/>
		<path fill="#231F20" d="M285.8,93.4v2.3c0,0.2,0.1,0.3,0.2,0.3c0.1,0,0.3-0.1,0.6-0.3v0.7c-0.2,0.2-0.4,0.3-0.6,0.3
			s-0.3,0.1-0.5,0.1c-0.5,0-0.7-0.2-0.8-0.5c-0.5,0.4-0.9,0.5-1.4,0.5c-0.4,0-0.7-0.1-0.9-0.4s-0.4-0.6-0.4-0.9
			c0-0.3,0.1-0.6,0.4-0.9s0.6-0.5,1-0.6l1.4-0.5v-0.3c0-0.6-0.3-1-1-1c-0.6,0-1.1,0.3-1.7,0.9v-1.2c0.4-0.5,1-0.7,1.8-0.7
			c0.6,0,1,0.2,1.4,0.5c0.1,0.1,0.2,0.2,0.3,0.4s0.2,0.3,0.2,0.5S285.8,92.9,285.8,93.4z M284.8,95.6V94l-0.7,0.3
			c-0.4,0.1-0.6,0.3-0.8,0.4s-0.2,0.3-0.2,0.5c0,0.2,0.1,0.4,0.2,0.5s0.3,0.2,0.6,0.2C284.2,96,284.5,95.8,284.8,95.6z"/>
		<path fill="#231F20" d="M288.1,89c0.2,0,0.3,0.1,0.5,0.2s0.2,0.3,0.2,0.4c0,0.2-0.1,0.3-0.2,0.4s-0.3,0.2-0.5,0.2
			c-0.2,0-0.3-0.1-0.4-0.2s-0.2-0.3-0.2-0.4c0-0.2,0.1-0.3,0.2-0.4S288,89,288.1,89z M287.6,91.2h1.1v5.4h-1.1V91.2z"/>
		<path fill="#231F20" d="M291.3,91.2v1.2l0.1-0.1c0.5-0.8,1-1.2,1.5-1.2c0.4,0,0.8,0.2,1.3,0.6l-0.6,0.9c-0.4-0.4-0.7-0.5-1-0.5
			c-0.3,0-0.6,0.2-0.9,0.5s-0.4,0.7-0.4,1.2v2.8h-1.1v-5.4H291.3z"/>
		<path fill="#231F20" d="M299.3,94h-3.8c0,0.5,0.2,0.9,0.5,1.2s0.7,0.5,1.2,0.5c0.7,0,1.4-0.2,1.9-0.7v1c-0.3,0.2-0.7,0.4-1,0.5
			s-0.7,0.1-1.1,0.1c-0.6,0-1.1-0.1-1.4-0.4s-0.7-0.6-0.9-1s-0.3-0.9-0.3-1.4c0-0.8,0.2-1.5,0.7-2s1.1-0.8,1.8-0.8
			c0.7,0,1.3,0.2,1.7,0.8s0.6,1.2,0.6,2V94z M295.5,93.4h2.7c0-0.4-0.2-0.8-0.4-1S297.3,92,297,92s-0.7,0.1-0.9,0.3
			S295.6,93,295.5,93.4z"/>
		<path fill="#231F20" d="M248.5,106.4h1.1v8.2h-1.1V106.4z"/>
		<path fill="#231F20" d="M254.5,111.4v2.3c0,0.2,0.1,0.3,0.2,0.3c0.1,0,0.3-0.1,0.6-0.3v0.7c-0.2,0.2-0.4,0.3-0.6,0.3
			s-0.3,0.1-0.5,0.1c-0.5,0-0.7-0.2-0.8-0.5c-0.5,0.4-0.9,0.5-1.4,0.5c-0.4,0-0.7-0.1-0.9-0.4s-0.4-0.6-0.4-0.9
			c0-0.3,0.1-0.6,0.4-0.9s0.6-0.5,1-0.6l1.4-0.5v-0.3c0-0.6-0.3-1-1-1c-0.6,0-1.1,0.3-1.7,0.9v-1.2c0.4-0.5,1-0.7,1.8-0.7
			c0.6,0,1,0.2,1.4,0.5c0.1,0.1,0.2,0.2,0.3,0.4s0.2,0.3,0.2,0.5S254.5,110.9,254.5,111.4z M253.4,113.6V112l-0.7,0.3
			c-0.4,0.1-0.6,0.3-0.8,0.4s-0.2,0.3-0.2,0.5c0,0.2,0.1,0.4,0.2,0.5s0.3,0.2,0.6,0.2C252.8,114,253.1,113.8,253.4,113.6z"/>
		<path fill="#231F20" d="M260.6,110.7v3.9h-1.1v-3c0-0.6-0.1-1-0.2-1.3s-0.4-0.4-0.8-0.4c-0.2,0-0.4,0.1-0.6,0.2s-0.4,0.3-0.6,0.5
			v3.9h-1.1v-5.4h1.1v0.7c0.5-0.5,1.1-0.8,1.6-0.8c0.7,0,1.2,0.3,1.6,1c0.6-0.7,1.2-1,1.8-1c0.5,0,1,0.2,1.3,0.6s0.5,1,0.5,1.8v3.2
			h-1.1v-3.2c0-0.4-0.1-0.8-0.3-1s-0.4-0.4-0.8-0.4C261.4,110,261,110.3,260.6,110.7z"/>
		<path fill="#231F20" d="M266,107c0.2,0,0.3,0.1,0.5,0.2s0.2,0.3,0.2,0.4c0,0.2-0.1,0.3-0.2,0.4s-0.3,0.2-0.5,0.2
			c-0.2,0-0.3-0.1-0.4-0.2s-0.2-0.3-0.2-0.4c0-0.2,0.1-0.3,0.2-0.4S265.9,107,266,107z M265.5,109.2h1.1v5.4h-1.1V109.2z"/>
		<path fill="#231F20" d="M269.2,109.2v0.7c0.5-0.5,1-0.8,1.6-0.8c0.3,0,0.6,0.1,0.9,0.3s0.5,0.4,0.7,0.7s0.2,0.8,0.2,1.4v3.1h-1.1
			v-3.1c0-0.6-0.1-0.9-0.3-1.2s-0.4-0.4-0.8-0.4c-0.5,0-0.9,0.3-1.3,0.8v3.8h-1.1v-5.4H269.2z"/>
		<path fill="#231F20" d="M277.5,111.4v2.3c0,0.2,0.1,0.3,0.2,0.3c0.1,0,0.3-0.1,0.6-0.3v0.7c-0.2,0.2-0.4,0.3-0.6,0.3
			s-0.3,0.1-0.5,0.1c-0.5,0-0.7-0.2-0.8-0.5c-0.5,0.4-0.9,0.5-1.4,0.5c-0.4,0-0.7-0.1-0.9-0.4s-0.4-0.6-0.4-0.9
			c0-0.3,0.1-0.6,0.4-0.9s0.6-0.5,1-0.6l1.4-0.5v-0.3c0-0.6-0.3-1-1-1c-0.6,0-1.1,0.3-1.7,0.9v-1.2c0.4-0.5,1-0.7,1.8-0.7
			c0.6,0,1,0.2,1.4,0.5c0.1,0.1,0.2,0.2,0.3,0.4s0.2,0.3,0.2,0.5S277.5,110.9,277.5,111.4z M276.4,113.6V112l-0.7,0.3
			c-0.4,0.1-0.6,0.3-0.8,0.4s-0.2,0.3-0.2,0.5c0,0.2,0.1,0.4,0.2,0.5s0.3,0.2,0.6,0.2C275.8,114,276.1,113.8,276.4,113.6z"/>
		<path fill="#231F20" d="M279.8,107c0.2,0,0.3,0.1,0.5,0.2s0.2,0.3,0.2,0.4c0,0.2-0.1,0.3-0.2,0.4s-0.3,0.2-0.5,0.2
			c-0.2,0-0.3-0.1-0.4-0.2s-0.2-0.3-0.2-0.4c0-0.2,0.1-0.3,0.2-0.4S279.6,107,279.8,107z M279.2,109.2h1.1v5.4h-1.1V109.2z"/>
		<path fill="#231F20" d="M283,109.2v1.2l0.1-0.1c0.5-0.8,1-1.2,1.5-1.2c0.4,0,0.8,0.2,1.3,0.6l-0.6,0.9c-0.4-0.4-0.7-0.5-1-0.5
			c-0.3,0-0.6,0.2-0.9,0.5s-0.4,0.7-0.4,1.2v2.8h-1.1v-5.4H283z"/>
		<path fill="#231F20" d="M291,112h-3.8c0,0.5,0.2,0.9,0.5,1.2s0.7,0.5,1.2,0.5c0.7,0,1.4-0.2,1.9-0.7v1c-0.3,0.2-0.7,0.4-1,0.5
			s-0.7,0.1-1.1,0.1c-0.6,0-1.1-0.1-1.4-0.4s-0.7-0.6-0.9-1s-0.3-0.9-0.3-1.4c0-0.8,0.2-1.5,0.7-2s1.1-0.8,1.8-0.8
			c0.7,0,1.3,0.2,1.7,0.8s0.6,1.2,0.6,2V112z M287.2,111.4h2.7c0-0.4-0.2-0.8-0.4-1s-0.5-0.3-0.9-0.3s-0.7,0.1-0.9,0.3
			S287.3,111,287.2,111.4z"/>
	</g>
	<g>
		<path fill="#231F20" d="M347.9,96.4h8v1.2h-3.3v8.3h-1.4v-8.3h-3.3V96.4z"/>
		<path fill="#231F20" d="M359.1,106v-0.8c-0.3,0.3-0.6,0.5-0.9,0.7s-0.7,0.2-1,0.2c-0.4,0-0.8-0.1-1.1-0.3s-0.6-0.5-0.8-0.8
			s-0.3-0.9-0.3-1.7v-3.6h1.2v3.6c0,0.7,0.1,1.1,0.3,1.4s0.5,0.4,1,0.4c0.6,0,1.1-0.3,1.5-0.9v-4.5h1.2v6.3H359.1z"/>
		<path fill="#231F20" d="M363.4,99.7v1.4l0.1-0.1c0.6-1,1.2-1.5,1.8-1.5c0.5,0,1,0.2,1.5,0.7l-0.7,1.1c-0.4-0.4-0.8-0.6-1.2-0.6
			c-0.4,0-0.7,0.2-1,0.6s-0.4,0.8-0.4,1.4v3.3h-1.3v-6.3H363.4z"/>
		<path fill="#231F20" d="M367.5,96.4h1.2v3.7c0.5-0.4,1.1-0.6,1.7-0.6c0.8,0,1.4,0.3,2,0.9s0.8,1.4,0.8,2.3c0,1-0.3,1.8-0.9,2.4
			s-1.4,0.9-2.4,0.9c-0.4,0-0.8,0-1.3-0.1s-0.8-0.2-1.1-0.3V96.4z M368.8,101.3v3.4c0.4,0.1,0.9,0.2,1.3,0.2c0.6,0,1-0.2,1.4-0.6
			s0.5-0.9,0.5-1.5c0-0.6-0.2-1.1-0.5-1.5s-0.8-0.6-1.3-0.6C369.7,100.7,369.3,100.9,368.8,101.3z"/>
		<path fill="#231F20" d="M378.6,106v-0.8c-0.3,0.3-0.6,0.5-0.9,0.7s-0.7,0.2-1,0.2c-0.4,0-0.8-0.1-1.1-0.3s-0.6-0.5-0.8-0.8
			s-0.3-0.9-0.3-1.7v-3.6h1.2v3.6c0,0.7,0.1,1.1,0.3,1.4s0.5,0.4,1,0.4c0.6,0,1.1-0.3,1.5-0.9v-4.5h1.2v6.3H378.6z"/>
		<path fill="#231F20" d="M381.6,96.4h1.2v9.5h-1.2V96.4z"/>
		<path fill="#231F20" d="M390,103h-4.4c0,0.6,0.2,1.1,0.6,1.4c0.4,0.4,0.8,0.5,1.4,0.5c0.8,0,1.6-0.3,2.3-0.8v1.2
			c-0.4,0.3-0.8,0.4-1.1,0.5c-0.4,0.1-0.8,0.2-1.3,0.2c-0.7,0-1.3-0.1-1.7-0.4c-0.4-0.3-0.8-0.7-1-1.2c-0.3-0.5-0.4-1-0.4-1.7
			c0-1,0.3-1.7,0.8-2.3c0.5-0.6,1.2-0.9,2.1-0.9c0.8,0,1.5,0.3,2,0.9c0.5,0.6,0.7,1.4,0.7,2.3V103z M385.6,102.2h3.2
			c0-0.5-0.2-0.9-0.4-1.1c-0.3-0.3-0.6-0.4-1.1-0.4c-0.4,0-0.8,0.1-1.1,0.4S385.7,101.7,385.6,102.2z"/>
		<path fill="#231F20" d="M392.6,99.7v0.8c0.6-0.6,1.2-0.9,1.9-0.9c0.4,0,0.8,0.1,1.1,0.3c0.3,0.2,0.6,0.5,0.8,0.8s0.3,0.9,0.3,1.7
			v3.6h-1.2v-3.6c0-0.6-0.1-1.1-0.3-1.4c-0.2-0.3-0.5-0.4-1-0.4c-0.6,0-1.1,0.3-1.5,0.9v4.5h-1.3v-6.3H392.6z"/>
		<path fill="#231F20" d="M397.5,100.7l2.3-2.3v1.3h2v1.1h-2v3.1c0,0.7,0.3,1.1,0.9,1.1c0.4,0,0.9-0.1,1.4-0.4v1.2
			c-0.5,0.3-1,0.4-1.6,0.4c-0.6,0-1-0.2-1.4-0.5c-0.1-0.1-0.2-0.2-0.3-0.3c-0.1-0.1-0.1-0.3-0.2-0.5c-0.1-0.2-0.1-0.6-0.1-1.2v-2.8
			h-1.1V100.7z"/>
	</g>
</g>
</svg>
